<svg xmlns="http://www.w3.org/2000/svg" width="512" height="512" viewBox="0 0 512 512">
  <defs>
    <linearGradient id="iconGrad" x1="0" y1="0" x2="1" y2="1">
      <stop offset="0" stop-color="#8B5CF6"/>
      <stop offset="1" stop-color="#06B6D4"/>
    </linearGradient>
  </defs>
  <rect x="16" y="16" width="480" height="480" rx="110" fill="url(#iconGrad)"/>
  <path d="M170 140h140l50 50v222a18 18 0 0 1-18 18H170a18 18 0 0 1-18-18V158a18 18 0 0 1 18-18z" fill="#FFFFFF"/>
  <path d="M310 140v50h50z" fill="#DDD6FE"/>
  <rect x="192" y="176" width="110" height="14" rx="7" fill="#8B5CF6" opacity="0.8"/>
  <rect x="192" y="208" width="140" height="10" rx="5" fill="#C4B5FD"/>
  <rect x="192" y="232" width="128" height="10" rx="5" fill="#C4B5FD"/>
  <rect x="192" y="256" width="140" height="10" rx="5" fill="#C4B5FD"/>
  <g transform="rotate(45 340 340)">
    <rect x="328" y="270" width="26" height="130" rx="9" fill="#F59E0B"/>
    <rect x="328" y="270" width="26" height="20" rx="9" fill="#FBBF24"/>
    <path d="M328 400l13 34 13-34z" fill="#EF4444"/>
  </g>
</svg>
