<svg xmlns="http://www.w3.org/2000/svg" width="800" height="600" viewBox="0 0 800 600">
  <defs>
    <linearGradient id="g1" x1="0" y1="0" x2="1" y2="1">
      <stop offset="0" stop-color="#6366F1"/>
      <stop offset="1" stop-color="#8B5CF6"/>
    </linearGradient>
    <linearGradient id="g2" x1="0" y1="0" x2="1" y2="1">
      <stop offset="0" stop-color="#8B5CF6"/>
      <stop offset="1" stop-color="#06B6D4"/>
    </linearGradient>
    <linearGradient id="g3" x1="0" y1="0" x2="1" y2="1">
      <stop offset="0" stop-color="#06B6D4"/>
      <stop offset="1" stop-color="#10B981"/>
    </linearGradient>
  </defs>
  <rect width="800" height="600" fill="#F8FAFC"/>
  <circle cx="120" cy="110" r="46" fill="#6366F1" opacity="0.12"/>
  <circle cx="700" cy="480" r="60" fill="#06B6D4" opacity="0.12"/>
  <circle cx="660" cy="90" r="26" fill="#8B5CF6" opacity="0.18"/>
  <circle cx="90" cy="470" r="30" fill="#10B981" opacity="0.14"/>
  <path d="M250 70l6 14 14 6-14 6-6 14-6-14-14-6 14-6z" fill="#F59E0B" opacity="0.5"/>
  <path d="M560 520l5 12 12 5-12 5-5 12-5-12-12-5 12-5z" fill="#6366F1" opacity="0.4"/>
  <path d="M720 300l4 10 10 4-10 4-4 10-4-10-10-4 10-4z" fill="#8B5CF6" opacity="0.45"/>
  <g>
    <rect x="90" y="150" width="300" height="210" rx="18" fill="#FFFFFF" stroke="#E2E8F0"/>
    <rect x="90" y="150" width="300" height="42" rx="18" fill="url(#g1)"/>
    <rect x="90" y="174" width="300" height="18" fill="url(#g1)"/>
    <circle cx="114" cy="171" r="6" fill="#FFFFFF" opacity="0.9"/>
    <circle cx="134" cy="171" r="6" fill="#FFFFFF" opacity="0.9"/>
    <circle cx="154" cy="171" r="6" fill="#FFFFFF" opacity="0.9"/>
    <rect x="180" y="163" width="180" height="16" rx="8" fill="#FFFFFF" opacity="0.35"/>
    <rect x="114" y="212" width="120" height="14" rx="7" fill="#6366F1" opacity="0.35"/>
    <rect x="114" y="238" width="250" height="10" rx="5" fill="#94A3B8" opacity="0.35"/>
    <rect x="114" y="258" width="220" height="10" rx="5" fill="#94A3B8" opacity="0.35"/>
    <rect x="114" y="292" width="80" height="30" rx="10" fill="url(#g2)" opacity="0.8"/>
    <rect x="206" y="292" width="80" height="30" rx="10" fill="#06B6D4" opacity="0.5"/>
  </g>
  <g>
    <rect x="430" y="120" width="150" height="300" rx="26" fill="#FFFFFF" stroke="#E2E8F0"/>
    <rect x="444" y="134" width="122" height="272" rx="18" fill="url(#g2)" opacity="0.15"/>
    <rect x="486" y="140" width="38" height="8" rx="4" fill="#64748B" opacity="0.5"/>
    <rect x="458" y="170" width="94" height="12" rx="6" fill="#8B5CF6" opacity="0.6"/>
    <rect x="458" y="194" width="70" height="8" rx="4" fill="#94A3B8" opacity="0.5"/>
    <rect x="458" y="216" width="94" height="60" rx="10" fill="#FFFFFF" opacity="0.85"/>
    <rect x="470" y="230" width="50" height="10" rx="5" fill="#06B6D4" opacity="0.6"/>
    <rect x="470" y="248" width="70" height="8" rx="4" fill="#94A3B8" opacity="0.5"/>
    <rect x="458" y="290" width="94" height="60" rx="10" fill="#FFFFFF" opacity="0.85"/>
    <rect x="470" y="304" width="50" height="10" rx="5" fill="#6366F1" opacity="0.6"/>
    <rect x="470" y="322" width="70" height="8" rx="4" fill="#94A3B8" opacity="0.5"/>
  </g>
  <g>
    <rect x="560" y="330" width="190" height="120" rx="14" fill="#FFFFFF" stroke="#E2E8F0"/>
    <rect x="560" y="330" width="190" height="26" rx="14" fill="url(#g3)"/>
    <rect x="560" y="342" width="190" height="14" fill="url(#g3)"/>
    <circle cx="576" cy="343" r="4" fill="#FFFFFF" opacity="0.9"/>
    <circle cx="590" cy="343" r="4" fill="#FFFFFF" opacity="0.9"/>
    <rect x="580" y="372" width="90" height="10" rx="5" fill="#6366F1" opacity="0.4"/>
    <rect x="580" y="392" width="150" height="8" rx="4" fill="#94A3B8" opacity="0.4"/>
    <rect x="580" y="408" width="130" height="8" rx="4" fill="#94A3B8" opacity="0.4"/>
    <rect x="580" y="428" width="60" height="14" rx="7" fill="#10B981" opacity="0.55"/>
    <path d="M540 450h230l-14 26H554z" fill="#CBD5E1"/>
    <rect x="530" y="476" width="250" height="10" rx="5" fill="#CBD5E1"/>
  </g>
  <rect x="60" y="420" width="120" height="80" rx="16" fill="url(#g1)" opacity="0.35"/>
  <rect x="76" y="438" width="70" height="10" rx="5" fill="#FFFFFF" opacity="0.8"/>
  <rect x="76" y="458" width="50" height="8" rx="4" fill="#FFFFFF" opacity="0.6"/>
  <rect x="620" y="60" width="130" height="90" rx="16" fill="url(#g2)" opacity="0.3"/>
  <rect x="638" y="80" width="80" height="10" rx="5" fill="#FFFFFF" opacity="0.8"/>
  <rect x="638" y="102" width="60" height="8" rx="4" fill="#FFFFFF" opacity="0.6"/>
  <rect x="330" y="470" width="110" height="70" rx="14" fill="#06B6D4" opacity="0.3"/>
  <rect x="346" y="488" width="60" height="10" rx="5" fill="#FFFFFF" opacity="0.8"/>
  <rect x="346" y="508" width="44" height="8" rx="4" fill="#FFFFFF" opacity="0.6"/>
</svg>
