<svg xmlns="http://www.w3.org/2000/svg" width="1280" height="720" viewBox="0 0 1280 720">
  <defs>
    <linearGradient id="bg" x1="0" y1="0" x2="1" y2="1">
      <stop offset="0" stop-color="#10B981"/>
      <stop offset="1" stop-color="#06B6D4"/>
    </linearGradient>
  </defs>
  <rect width="1280" height="720" fill="url(#bg)"/>
  <circle cx="110" cy="90" r="90" fill="#FFFFFF" opacity="0.08"/>
  <circle cx="1190" cy="640" r="110" fill="#FFFFFF" opacity="0.08"/>
  <rect x="290" y="100" width="700" height="480" rx="12" fill="#FFFFFF"/>
  <rect x="290" y="100" width="700" height="40" rx="12" fill="#E2E8F0"/>
  <rect x="290" y="122" width="700" height="18" fill="#E2E8F0"/>
  <rect x="310" y="112" width="200" height="16" rx="8" fill="#CBD5E1"/>
  <circle cx="940" cy="120" r="7" fill="#EF4444"/>
  <circle cx="962" cy="120" r="7" fill="#F59E0B"/>
  <circle cx="984" cy="120" r="7" fill="#10B981"/>
  <rect x="330" y="160" width="180" height="20" rx="10" fill="#10B981" opacity="0.6"/>
  <rect x="330" y="206" width="620" height="80" rx="14" fill="#F8FAFC"/>
  <rect x="350" y="226" width="140" height="12" rx="6" fill="#94A3B8" opacity="0.7"/>
  <rect x="350" y="250" width="300" height="20" rx="10" fill="#FFFFFF" stroke="#E2E8F0"/>
  <rect x="670" y="246" width="60" height="28" rx="14" fill="#10B981" opacity="0.8"/>
  <circle cx="712" cy="260" r="9" fill="#FFFFFF"/>
  <rect x="330" y="302" width="620" height="80" rx="14" fill="#F8FAFC"/>
  <rect x="350" y="322" width="140" height="12" rx="6" fill="#94A3B8" opacity="0.7"/>
  <rect x="350" y="346" width="300" height="20" rx="10" fill="#FFFFFF" stroke="#E2E8F0"/>
  <rect x="670" y="342" width="60" height="28" rx="14" fill="#E2E8F0"/>
  <circle cx="682" cy="356" r="9" fill="#FFFFFF"/>
  <rect x="330" y="398" width="620" height="80" rx="14" fill="#F8FAFC"/>
  <rect x="350" y="418" width="140" height="12" rx="6" fill="#94A3B8" opacity="0.7"/>
  <rect x="350" y="442" width="300" height="20" rx="10" fill="#FFFFFF" stroke="#E2E8F0"/>
  <rect x="670" y="438" width="60" height="28" rx="14" fill="#10B981" opacity="0.8"/>
  <circle cx="712" cy="452" r="9" fill="#FFFFFF"/>
  <rect x="330" y="494" width="620" height="80" rx="14" fill="#F8FAFC"/>
  <rect x="350" y="514" width="140" height="12" rx="6" fill="#94A3B8" opacity="0.7"/>
  <rect x="350" y="538" width="120" height="28" rx="10" fill="#10B981" opacity="0.75"/>
  <rect x="490" y="538" width="120" height="28" rx="10" fill="#FFFFFF" stroke="#E2E8F0"/>
  <rect x="650" y="538" width="120" height="28" rx="10" fill="#FFFFFF" stroke="#E2E8F0"/>
  <text x="640" y="688" text-anchor="middle" font-family="Arial, sans-serif" font-weight="bold" font-size="40" fill="#FFFFFF">حاسبة HSA — الإعدادات</text>
</svg>
