<svg xmlns="http://www.w3.org/2000/svg" width="1280" height="720" viewBox="0 0 1280 720">
  <defs>
    <linearGradient id="bg" x1="0" y1="0" x2="1" y2="1">
      <stop offset="0" stop-color="#10B981"/>
      <stop offset="1" stop-color="#06B6D4"/>
    </linearGradient>
  </defs>
  <rect width="1280" height="720" fill="url(#bg)"/>
  <circle cx="110" cy="90" r="90" fill="#FFFFFF" opacity="0.08"/>
  <circle cx="1190" cy="640" r="110" fill="#FFFFFF" opacity="0.08"/>
  <rect x="290" y="100" width="700" height="480" rx="12" fill="#FFFFFF"/>
  <rect x="290" y="100" width="700" height="40" rx="12" fill="#E2E8F0"/>
  <rect x="290" y="122" width="700" height="18" fill="#E2E8F0"/>
  <rect x="310" y="112" width="200" height="16" rx="8" fill="#CBD5E1"/>
  <circle cx="940" cy="120" r="7" fill="#EF4444"/>
  <circle cx="962" cy="120" r="7" fill="#F59E0B"/>
  <circle cx="984" cy="120" r="7" fill="#10B981"/>
  <rect x="330" y="160" width="180" height="20" rx="10" fill="#10B981" opacity="0.6"/>
  <rect x="330" y="206" width="620" height="64" rx="12" fill="#F8FAFC"/>
  <rect x="350" y="224" width="260" height="14" rx="7" fill="#10B981" opacity="0.55"/>
  <rect x="350" y="246" width="180" height="10" rx="5" fill="#CBD5E1"/>
  <rect x="830" y="224" width="90" height="26" rx="13" fill="#10B981" opacity="0.7"/>
  <rect x="330" y="286" width="620" height="64" rx="12" fill="#F8FAFC"/>
  <rect x="350" y="304" width="260" height="14" rx="7" fill="#10B981" opacity="0.55"/>
  <rect x="350" y="326" width="180" height="10" rx="5" fill="#CBD5E1"/>
  <rect x="830" y="304" width="90" height="26" rx="13" fill="#10B981" opacity="0.7"/>
  <rect x="330" y="366" width="620" height="64" rx="12" fill="#F8FAFC"/>
  <rect x="350" y="384" width="260" height="14" rx="7" fill="#10B981" opacity="0.55"/>
  <rect x="350" y="406" width="180" height="10" rx="5" fill="#CBD5E1"/>
  <rect x="830" y="384" width="90" height="26" rx="13" fill="#10B981" opacity="0.7"/>
  <rect x="330" y="446" width="620" height="64" rx="12" fill="#F8FAFC"/>
  <rect x="350" y="464" width="260" height="14" rx="7" fill="#10B981" opacity="0.55"/>
  <rect x="350" y="486" width="180" height="10" rx="5" fill="#CBD5E1"/>
  <rect x="830" y="464" width="90" height="26" rx="13" fill="#10B981" opacity="0.7"/>
  <rect x="330" y="526" width="620" height="64" rx="12" fill="#F8FAFC"/>
  <rect x="350" y="544" width="260" height="14" rx="7" fill="#10B981" opacity="0.55"/>
  <rect x="350" y="566" width="180" height="10" rx="5" fill="#CBD5E1"/>
  <rect x="830" y="544" width="90" height="26" rx="13" fill="#10B981" opacity="0.7"/>
  <text x="640" y="688" text-anchor="middle" font-family="Arial, sans-serif" font-weight="bold" font-size="40" fill="#FFFFFF">حاسبة HSA — السجل</text>
</svg>
