<svg xmlns="http://www.w3.org/2000/svg" width="1280" height="720" viewBox="0 0 1280 720">
  <defs>
    <linearGradient id="bg" x1="0" y1="0" x2="1" y2="1">
      <stop offset="0" stop-color="#EF4444"/>
      <stop offset="1" stop-color="#8B5CF6"/>
    </linearGradient>
  </defs>
  <rect width="1280" height="720" fill="url(#bg)"/>
  <circle cx="110" cy="90" r="90" fill="#FFFFFF" opacity="0.08"/>
  <circle cx="1190" cy="640" r="110" fill="#FFFFFF" opacity="0.08"/>
  <rect x="240" y="80" width="800" height="520" rx="20" fill="#FFFFFF"/>
  <rect x="240" y="80" width="800" height="46" rx="20" fill="#F5F3FF"/>
  <rect x="240" y="106" width="800" height="20" fill="#F5F3FF"/>
  <circle cx="266" cy="103" r="7" fill="#EF4444"/>
  <circle cx="288" cy="103" r="7" fill="#F59E0B"/>
  <circle cx="310" cy="103" r="7" fill="#10B981"/>
  <rect x="350" y="93" width="420" height="20" rx="10" fill="#E2E8F0"/>
  <circle cx="290" cy="170" r="18" fill="#EF4444" opacity="0.8"/>
  <rect x="320" y="162" width="70" height="16" rx="8" fill="#8B5CF6" opacity="0.6"/>
  <rect x="560" y="162" width="60" height="12" rx="6" fill="#94A3B8" opacity="0.6"/>
  <rect x="640" y="162" width="60" height="12" rx="6" fill="#94A3B8" opacity="0.6"/>
  <rect x="720" y="162" width="60" height="12" rx="6" fill="#94A3B8" opacity="0.6"/>
  <rect x="830" y="152" width="120" height="32" rx="16" fill="#EF4444" opacity="0.75"/>
  <rect x="290" y="220" width="220" height="22" rx="11" fill="#8B5CF6" opacity="0.6"/>
  <rect x="290" y="270" width="120" height="12" rx="6" fill="#94A3B8" opacity="0.7"/>
  <rect x="290" y="294" width="420" height="38" rx="10" fill="#FFFFFF" stroke="#E2E8F0"/>
  <rect x="290" y="348" width="120" height="12" rx="6" fill="#94A3B8" opacity="0.7"/>
  <rect x="290" y="372" width="420" height="38" rx="10" fill="#FFFFFF" stroke="#E2E8F0"/>
  <rect x="290" y="426" width="120" height="12" rx="6" fill="#94A3B8" opacity="0.7"/>
  <rect x="290" y="450" width="420" height="110" rx="10" fill="#FFFFFF" stroke="#E2E8F0"/>
  <rect x="290" y="580" width="140" height="40" rx="12" fill="#EF4444" opacity="0.8"/>
  <rect x="640" y="270" width="360" height="350" rx="18" fill="#EEF2FF"/>
  <circle cx="820" cy="360" r="52" fill="#8B5CF6" opacity="0.3"/>
  <rect x="700" y="440" width="240" height="14" rx="7" fill="#8B5CF6" opacity="0.45"/>
  <rect x="720" y="470" width="200" height="10" rx="5" fill="#CBD5E1"/>
  <rect x="740" y="494" width="160" height="10" rx="5" fill="#CBD5E1"/>
  <rect x="730" y="540" width="180" height="34" rx="12" fill="#06B6D4" opacity="0.55"/>
  <text x="640" y="688" text-anchor="middle" font-family="Arial, sans-serif" font-weight="bold" font-size="40" fill="#FFFFFF">أعمال HSA — تواصل</text>
</svg>
